<?xml version="1.0" encoding="UTF-8"?>
<svg version="1.1" xmlns="http://www.w3.org/2000/svg" width="1205" height="980">
<path d="M0 0 C397.65 0 795.3 0 1205 0 C1205 323.4 1205 646.8 1205 980 C807.35 980 409.7 980 0 980 C0 656.6 0 333.2 0 0 Z " fill="#FEFEFE" transform="translate(0,0)"/>
<path d="M0 0 C1.00433075 -0.00067474 2.0086615 -0.00134949 3.04342651 -0.00204468 C24.76819662 0.02113939 45.24976925 1.73808387 66.23974609 7.64892578 C68.16112221 8.18979338 70.08995231 8.70401203 72.01953125 9.21484375 C79.08823151 11.13219784 86.01576519 13.42676887 92.9375 15.8125 C93.79537109 16.10560059 94.65324219 16.39870117 95.53710938 16.70068359 C99.81418546 18.20172395 103.52195589 19.83303223 107.375 22.25 C109.69946952 23.27043417 112.03327838 24.26980395 114.375 25.25 C134.42727765 34.49103681 153.21258439 46.46352326 170.19140625 60.55859375 C172.34959351 62.31122942 172.34959351 62.31122942 174.83984375 63.66015625 C177.84290007 65.54342886 179.91464071 67.6853882 182.375 70.25 C183.81467156 71.67235116 185.2577308 73.09127706 186.703125 74.5078125 C195.06740365 82.76110963 203.26526634 90.87421577 210.375 100.25 C211.56222656 101.74660156 211.56222656 101.74660156 212.7734375 103.2734375 C231.88359494 127.43944654 245.92720751 153.77292908 255.61816406 183 C256.29830732 185.02200009 257.01016178 187.02758488 257.7421875 189.03125 C269.68618303 222.56346106 269.84788902 257.13980928 269.375 292.25 C270.27990677 292.23643463 270.27990677 292.23643463 271.20309448 292.22259521 C279.25810076 292.12159271 287.27729044 292.62993863 295.3125 293.125 C296.42076645 293.19269089 296.42076645 293.19269089 297.55142212 293.26174927 C301.35160463 293.49444481 305.15149876 293.73130101 308.95117188 293.97216797 C311.79327735 294.15202552 314.63561088 294.32593675 317.47851562 294.49267578 C321.17409892 294.71167675 324.86825736 294.94706918 328.5625 295.1875 C329.65876709 295.2498584 330.75503418 295.3122168 331.88452148 295.37646484 C337.69996055 295.77727659 342.18394821 296.55535218 347.375 299.25 C346.1689392 309.57689557 337.87258352 320.30404049 330.375 327.25 C323.10825371 331.83467242 315.95873591 331.77950191 307.58984375 331.640625 C306.29301163 331.63496521 304.9961795 331.62930542 303.66004944 331.62347412 C300.24199568 331.60833135 296.82464119 331.56915169 293.40686035 331.5246582 C289.90740412 331.48345693 286.40783292 331.46541056 282.90820312 331.4453125 C276.06351807 331.40264311 269.21929277 331.33453353 262.375 331.25 C262.1589209 333.11386353 262.1589209 333.11386353 261.93847656 335.01538086 C261.46450275 339.1038026 260.4140638 342.91178801 259.125 346.8125 C258.90465088 347.49578369 258.68430176 348.17906738 258.45727539 348.88305664 C257.99786824 350.30237523 257.53504286 351.72059185 257.06884766 353.13769531 C256.39456158 355.19044799 255.73322439 357.24698624 255.07421875 359.3046875 C248.24938981 380.34791007 238.07818553 401.12411077 225.375 419.25 C224.78460937 420.11882812 224.19421875 420.98765625 223.5859375 421.8828125 C221.88227141 424.36440831 220.14017971 426.81182148 218.375 429.25 C217.71113281 430.17039062 217.04726563 431.09078125 216.36328125 432.0390625 C204.72039442 447.88342195 191.53839894 462.68187511 176.375 475.25 C175.4778125 476.00152344 174.580625 476.75304687 173.65625 477.52734375 C160.72649919 488.25 160.72649919 488.25 157.375 488.25 C157.045 489.24 156.715 490.23 156.375 491.25 C154.84716797 492.45751953 154.84716797 492.45751953 152.8671875 493.6328125 C152.13516113 494.07343018 151.40313477 494.51404785 150.64892578 494.96801758 C149.85728027 495.43232178 149.06563477 495.89662598 148.25 496.375 C147.43901855 496.85928467 146.62803711 497.34356934 145.79248047 497.8425293 C144.12469381 498.83794765 142.4549186 499.83004159 140.78320312 500.81884766 C138.59983502 502.11638454 136.42994898 503.43273853 134.265625 504.76171875 C118.35144861 514.51156688 101.81392754 521.56222307 84.21044922 527.6171875 C82.74327345 528.12302942 81.27928127 528.6381019 79.81640625 529.15625 C42.47135805 542.14583198 -2.29677952 546.57314218 -40.99609375 537.99609375 C-44.62226742 537.25056181 -48.19738646 536.78799403 -51.875 536.375 C-97.0121542 530.66203383 -143.11760215 506.37682952 -176.625 476.25 C-178.12412203 474.95731445 -179.62401147 473.66551781 -181.125 472.375 C-192.51729508 462.48441655 -203.1485993 450.88835369 -211.890625 438.60546875 C-213.47995876 436.31953907 -213.47995876 436.31953907 -215.07299805 434.81616211 C-233.4543424 416.26711003 -245.06961381 388.11424056 -254.625 364.25 C-255.08777344 363.10402344 -255.55054688 361.95804687 -256.02734375 360.77734375 C-261.74270485 345.74941345 -265.1562249 329.8006211 -267.9375 314 C-268.09677979 313.09709229 -268.25605957 312.19418457 -268.42016602 311.26391602 C-270.74311568 297.34797568 -270.75024839 283.56511158 -270.6875 269.5 C-270.68247437 267.53125114 -270.67791335 265.56250104 -270.67382812 263.59375 C-270.66290809 258.81246882 -270.64570218 254.03124842 -270.625 249.25 C-271.64013672 249.19448975 -272.65527344 249.13897949 -273.70117188 249.08178711 C-285.78294939 248.41788587 -297.86335809 247.73143675 -309.94140625 247.00268555 C-312.07796912 246.87504885 -314.21469311 246.75008341 -316.3515625 246.62768555 C-319.49522415 246.44722139 -322.63823133 246.25770583 -325.78125 246.06640625 C-326.72311157 246.01424454 -327.66497314 245.96208282 -328.63537598 245.90834045 C-344.99454028 244.88045972 -344.99454028 244.88045972 -348.625 241.25 C-348.42557925 235.7061031 -346.92464596 232.65870969 -343.5 228.375 C-342.68789063 227.34632813 -341.87578125 226.31765625 -341.0390625 225.2578125 C-339.84410156 223.76894531 -339.84410156 223.76894531 -338.625 222.25 C-337.37420913 220.58392678 -336.12411939 218.91732676 -334.875 217.25 C-331.86502426 213.23669902 -328.89205313 209.64553218 -323.76608276 208.75120544 C-322.72034088 208.75137161 -321.674599 208.75153778 -320.59716797 208.75170898 C-319.40598358 208.74167343 -318.21479919 208.73163788 -316.98751831 208.72129822 C-315.07170456 208.73357201 -315.07170456 208.73357201 -313.1171875 208.74609375 C-311.10439384 208.73170138 -309.09160014 208.71729333 -307.07881355 208.7019434 C-304.26679125 208.68501593 -301.45488699 208.68552004 -298.64282227 208.68664551 C-293.71312393 208.68861132 -288.7836182 208.68176885 -283.85403442 208.64674377 C-281.23093908 208.62986767 -278.60770796 208.62714737 -275.98458862 208.63975525 C-274.79970856 208.63287186 -273.61482849 208.62598846 -272.39404297 208.61889648 C-270.82781693 208.62033913 -270.82781693 208.62033913 -269.22994995 208.62181091 C-266.59801527 208.46355759 -266.59801527 208.46355759 -264.82290649 206.86651611 C-263.29433215 204.80377994 -262.64897622 202.8829363 -261.90625 200.42578125 C-261.61363281 199.47896484 -261.32101562 198.53214844 -261.01953125 197.55664062 C-260.72433594 196.56857422 -260.42914063 195.58050781 -260.125 194.5625 C-257.00405389 184.32061791 -253.39641043 174.53171288 -249.1875 164.6875 C-248.80529297 163.78064453 -248.42308594 162.87378906 -248.02929688 161.93945312 C-245.84418921 156.8235559 -243.4516528 152.03875452 -240.625 147.25 C-239.91877296 145.58073609 -239.21300827 143.9112592 -238.515625 142.23828125 C-223.20351658 108.05467078 -195.24313224 76.43025351 -165.25488281 54.44726562 C-163.61575642 53.24320993 -161.99156197 52.02073206 -160.3671875 50.796875 C-147.49155548 41.22490866 -133.10166753 32.21298503 -118.16015625 26.26953125 C-115.69261818 25.27719314 -113.33167999 24.15660869 -110.9375 23 C-103.0699494 19.40461397 -94.85233783 16.87827596 -86.625 14.25 C-85.27595488 13.8114648 -83.92699256 13.37267478 -82.578125 12.93359375 C-66.18220047 7.6460414 -49.75042086 3.35293037 -32.625 1.25 C-31.88330566 1.15428711 -31.14161133 1.05857422 -30.37744141 0.95996094 C-20.2990956 -0.15475006 -10.12652412 0.00609714 0 0 Z " fill="#030303" transform="translate(616.625,116.75)"/>
<path d="M0 0 C10.57571933 -0.15563497 21.02012651 0.32696902 31.56640625 1.0234375 C33.25135038 1.13118617 34.93632331 1.23848529 36.62132263 1.34536743 C41.04432672 1.62687841 45.46699504 1.91333381 49.8895874 2.20123291 C56.8540978 2.65399845 63.81901548 3.1004606 70.78404045 3.54523277 C72.51576967 3.65581873 74.24748582 3.76660941 75.97918892 3.87760353 C89.32584654 4.73147991 102.67575365 5.48700055 116.031147 6.18972206 C127.66914214 6.80321775 139.2952517 7.51574597 150.91781616 8.37631226 C165.93763963 9.48617652 180.94623893 10.48336205 196 11 C195.26904297 14.79052734 195.26904297 14.79052734 192.84765625 16.67578125 C191.92855469 17.21589844 191.00945312 17.75601562 190.0625 18.3125 C185.45402808 21.10605248 181.0224057 24.03199253 176.625 27.14453125 C173.8053878 29.13756071 170.96692608 31.10142601 168.125 33.0625 C162.4250498 37.00302459 156.74144424 40.96677365 151.0625 44.9375 C150.20809326 45.53393311 149.35368652 46.13036621 148.47338867 46.74487305 C144.5281717 49.50460557 140.59737379 52.27903424 136.7109375 55.12109375 C136.06761475 55.58974854 135.42429199 56.05840332 134.76147461 56.54125977 C133.57803083 57.4066263 132.39886339 58.27788329 131.22485352 59.15600586 C127.33151318 62 127.33151318 62 124 62 C124 62.66 124 63.32 124 64 C122.1015625 65.62109375 122.1015625 65.62109375 119.625 67.4375 C116.72626071 69.56784332 115.01934336 70.97098496 113 74 C113 74.99 113 75.98 113 77 C116.40164172 79.05701161 119.03024635 79.25327442 122.9738884 79.26171303 C124.20452444 79.26917852 125.43516048 79.27664401 126.70308852 79.28433573 C128.07083774 79.2825589 129.43858673 79.28059799 130.80633545 79.2784729 C132.25759577 79.2834745 133.70885331 79.28934989 135.1601069 79.29602563 C139.15303613 79.31185616 143.14589506 79.31525799 147.13885188 79.31667423 C151.44286406 79.32036296 155.74683744 79.33551579 160.05082703 79.34928894 C167.50944361 79.37158219 174.96804643 79.38658305 182.42668915 79.39665604 C193.21068105 79.41123046 203.994625 79.43676379 214.7785888 79.46498732 C232.27409209 79.51047783 249.76960227 79.54708329 267.26513672 79.578125 C284.26221935 79.6083013 301.25928511 79.64264733 318.25634766 79.68261719 C319.82742449 79.68630951 319.82742449 79.68630951 321.43024024 79.69007643 C326.68456688 79.70245085 331.93889332 79.71490742 337.19321966 79.72740483 C380.79545625 79.83100644 424.3977138 79.92019854 468 80 C467.68987385 81.42537135 467.3779094 82.85034281 467.06518555 84.27514648 C466.89166061 85.06872055 466.71813568 85.86229462 466.53935242 86.67991638 C456.03066667 131.88418149 424.31479845 178.70335256 387 206 C386.19780029 206.59288818 386.19780029 206.59288818 385.37939453 207.19775391 C378.14108268 212.53411604 370.81858786 217.54019944 363 222 C362.30777344 222.4125 361.61554688 222.825 360.90234375 223.25 C356.25217014 226 356.25217014 226 354 226 C354 226.66 354 227.32 354 228 C353.44570313 228.19335938 352.89140625 228.38671875 352.3203125 228.5859375 C351.59585937 228.84632813 350.87140625 229.10671875 350.125 229.375 C349.40570312 229.63023437 348.68640625 229.88546875 347.9453125 230.1484375 C345.81842006 230.93877783 345.81842006 230.93877783 344 233 C341.87841411 233.93225479 339.72782874 234.79942315 337.5625 235.625 C336.40878906 236.07101562 335.25507812 236.51703125 334.06640625 236.9765625 C331 238 331 238 328 238 C328 238.66 328 239.32 328 240 C268.28292417 262.11775636 206.0829672 267.00640422 146.828125 240.24072266 C132.9707962 233.81513954 119.59887749 226.64729473 107 218 C106.41911621 217.60312988 105.83823242 217.20625977 105.23974609 216.79736328 C96.7664471 210.97211464 88.7783248 204.72522721 81 198 C80.40590332 197.49275391 79.81180664 196.98550781 79.19970703 196.46289062 C73.79725986 191.80806161 68.68317697 186.89984467 63.625 181.875 C62.41650391 180.69744141 62.41650391 180.69744141 61.18359375 179.49609375 C60.41402344 178.73167969 59.64445312 177.96726562 58.8515625 177.1796875 C58.15885254 176.49632324 57.46614258 175.81295898 56.75244141 175.10888672 C55 173 55 173 53.94677734 170.30126953 C53.63434082 169.54185059 53.3219043 168.78243164 53 168 C52.01 167.67 51.02 167.34 50 167 C48.640625 165.53564453 48.640625 165.53564453 47.25 163.6328125 C46.72937988 162.92165283 46.20875977 162.21049316 45.67236328 161.4777832 C45.1204834 160.70136475 44.56860352 159.92494629 44 159.125 C43.42620605 158.32215576 42.85241211 157.51931152 42.26123047 156.69213867 C33.76570054 144.60775736 26.47868823 131.83204439 20.484375 118.33203125 C19.57509598 116.29093914 18.63419502 114.26313423 17.640625 112.26171875 C14.50582735 105.88569513 12.56418144 99.39800337 10.78662109 92.54370117 C9.83187394 88.87573915 8.79313334 85.33536767 7.41796875 81.80078125 C6.20693553 78.67176453 5.43202249 75.70702532 4.9375 72.375 C4.78152344 71.34632813 4.62554687 70.31765625 4.46484375 69.2578125 C4.31144531 68.18273437 4.15804688 67.10765625 4 66 C3.83628906 64.90429688 3.67257812 63.80859375 3.50390625 62.6796875 C3.1703654 60.40954122 2.84704766 58.13786729 2.53442383 55.86474609 C2.19284528 53.39458235 1.83898393 50.92606576 1.46923828 48.45996094 C-0.01210373 37.92628006 -0.23898598 27.62435402 -0.125 17 C-0.11493256 15.33854717 -0.10581347 13.67708831 -0.09765625 12.015625 C-0.07598111 8.01026319 -0.04166743 4.00520165 0 0 Z " fill="#FDFDFD" transform="translate(378,368)"/>
<path d="M0 0 C0.81586578 -0.00100708 1.63173157 -0.00201416 2.47232056 -0.00305176 C34.22202658 0.02334842 65.31843906 6.05690988 94.73730469 18.19921875 C96.36577833 18.86370022 98.00015347 19.51404971 99.64208984 20.14453125 C105.61623165 22.44746063 111.21863524 25.14154557 116.8125 28.25 C117.66400635 28.72058838 118.5155127 29.19117676 119.39282227 29.67602539 C130.15751053 35.72227319 140.77152643 42.38708711 150.3125 50.25 C151.18648437 50.94738281 152.06046875 51.64476562 152.9609375 52.36328125 C157.78724335 56.25613253 162.40099493 60.17460426 166.703125 64.640625 C168.3321632 66.2696632 170.0342945 67.72402114 171.8125 69.1875 C175.75552748 72.50282579 179.0187701 76.30332805 182.3125 80.25 C183.07949219 81.16007812 183.84648438 82.07015625 184.63671875 83.0078125 C216.31913609 121.10782794 241.57442632 171.77298877 241.4453125 222.3515625 C241.44674759 223.6117067 241.44674759 223.6117067 241.44821167 224.89730835 C241.44888778 226.66038081 241.44707349 228.42345585 241.44287109 230.18652344 C241.43750119 232.87440598 241.4428424 235.56212248 241.44921875 238.25 C241.44855813 239.97135453 241.4472773 241.69270896 241.4453125 243.4140625 C241.44733673 244.21107574 241.44936096 245.00808899 241.45144653 245.82925415 C241.43368663 250.08045213 241.15370638 254.06234598 240.3125 258.25 C228.93733846 257.77289609 217.58050918 257.15266829 206.22265625 256.36328125 C193.70636216 255.51142574 181.18565199 254.76905206 168.66015625 254.06640625 C166.83210892 253.96326157 165.00406532 253.86005064 163.17602539 253.7567749 C155.69967259 253.33491964 148.22330463 252.91353821 140.74633789 252.50268555 C121.23409417 251.4285422 101.78009921 250.24180684 82.33862305 248.24066162 C73.50587338 247.33570365 64.75232355 246.74075951 55.875 246.5625 C54.63169922 246.52833984 53.38839844 246.49417969 52.10742188 246.45898438 C49.17587163 246.37975329 46.24449994 246.3097021 43.3125 246.25 C43.3125 245.59 43.3125 244.93 43.3125 244.25 C45.2265625 242.875 45.2265625 242.875 47.9375 241.25 C52.41731214 238.48086963 56.73654635 235.5848445 61 232.5 C74.34906627 222.8720113 88.00013785 213.67712595 101.7578125 204.64453125 C106.44238712 201.55893505 111.04498508 198.36307349 115.625 195.125 C116.22449463 194.70476562 116.82398926 194.28453125 117.44165039 193.8515625 C123.04445018 189.86342288 126.45453242 186.53752868 129.3125 180.25 C127.3325 179.92 125.3525 179.59 123.3125 179.25 C123.3125 178.59 123.3125 177.93 123.3125 177.25 C8.1425 177.25 -107.0275 177.25 -225.6875 177.25 C-224.56051587 167.10714286 -224.56051587 167.10714286 -222.90234375 162.46484375 C-222.36033325 160.93972168 -222.36033325 160.93972168 -221.80737305 159.38378906 C-221.22209839 157.80162598 -221.22209839 157.80162598 -220.625 156.1875 C-220.21870361 155.07987305 -219.81240723 153.97224609 -219.39379883 152.83105469 C-216.06721646 143.93683757 -212.27499019 135.55283395 -207.6875 127.25 C-207.25066895 126.44111328 -206.81383789 125.63222656 -206.36376953 124.79882812 C-199.71541324 112.52002385 -192.53001837 101.06533994 -183.6875 90.25 C-183.17606445 89.62432129 -182.66462891 88.99864258 -182.13769531 88.35400391 C-170.92522902 74.78377601 -158.69447069 61.95572727 -144.6875 51.25 C-144.08824707 50.7849707 -143.48899414 50.31994141 -142.87158203 49.84082031 C-101.66299586 17.89570272 -52.2100555 0.0448557 0 0 Z " fill="#FDFDFD" transform="translate(612.6875,148.75)"/>
<path d="M0 0 C0.70479492 0.16628906 1.40958984 0.33257813 2.13574219 0.50390625 C14.8745641 3.64642056 25.07122937 9.2854451 33 20 C33 20.66 33 21.32 33 22 C33.66 22 34.32 22 35 22 C43.95106174 40.65373935 45.14938387 64.68142425 39.33984375 84.5703125 C37.25682849 89.90234572 34.4654352 94.46301576 31 99 C30.34773438 99.85722656 29.69546875 100.71445312 29.0234375 101.59765625 C25.53802109 105.73574716 21.65565931 108.27119159 17 111 C16.36562012 111.39364746 15.73124023 111.78729492 15.07763672 112.19287109 C1.44556689 120.29902216 -11.90918991 120.8474887 -27.375 120.8125 C-28.80934891 120.81514359 -28.80934891 120.81514359 -30.27267456 120.81784058 C-33.04513498 120.81050312 -35.81416407 120.76740692 -38.5859375 120.70703125 C-39.41548447 120.6990451 -40.24503143 120.69105896 -41.09971619 120.68283081 C-46.95029302 120.47288143 -50.95133229 118.86458241 -56 116 C-57.5739031 115.39168162 -59.15613068 114.80389785 -60.75 114.25 C-74.68119949 108.71598057 -86.64580459 97.93974494 -93.265625 84.4140625 C-98.91265297 68.41414991 -97.36693196 49.86020927 -92 34 C-91.68804687 33.04996094 -91.37609375 32.09992187 -91.0546875 31.12109375 C-86.55252775 18.73069613 -78.76927503 9.1987922 -66.86450195 3.42895508 C-46.22199934 -5.83558087 -21.66813642 -5.18483905 0 0 Z " fill="#040404" transform="translate(272,744)"/>
<path d="M0 0 C13.6125 -0.0825 27.225 -0.165 41.25 -0.25 C45.52614258 -0.28641602 49.80228516 -0.32283203 54.20800781 -0.36035156 C59.48583984 -0.37841797 59.48583984 -0.37841797 61.96746826 -0.3817749 C63.67698346 -0.38786157 65.38648299 -0.40181262 67.09588623 -0.42230225 C80.11544607 -0.57037028 93.65627859 -0.11690794 104 9 C105.99334499 11.52038123 107.52512546 14.15119291 109 17 C109.5775 18.051875 110.155 19.10375 110.75 20.1875 C113.43124203 26.22029458 113.18317666 32.26499206 113.1875 38.75 C113.19974609 39.70132813 113.21199219 40.65265625 113.22460938 41.6328125 C113.24918367 53.59230151 110.84725228 61.74580508 102.48828125 70.6015625 C92.41006771 79.60292582 80.1115147 80.31320424 67.2109375 80.1953125 C65.43428207 80.19106766 65.43428207 80.19106766 63.62173462 80.18673706 C59.87271631 80.17562395 56.12394499 80.1505358 52.375 80.125 C49.81901389 80.11495874 47.263024 80.1058349 44.70703125 80.09765625 C38.47118456 80.07742313 32.23586578 80.03825685 26 80 C26 91.88 26 103.76 26 116 C17.42 116 8.84 116 0 116 C0 77.72 0 39.44 0 0 Z " fill="#040404" transform="translate(456,744)"/>
<path d="M0 0 C32.67 0 65.34 0 99 0 C99 6.6 99 13.2 99 20 C74.91 20 50.82 20 26 20 C26 28.58 26 37.16 26 46 C47.78 46 69.56 46 92 46 C92 52.6 92 59.2 92 66 C70.22 66 48.44 66 26 66 C26 74.91 26 83.82 26 93 C50.42 93 74.84 93 100 93 C101 103 101 103 101 115 C67.67 115 34.34 115 0 115 C0 77.05 0 39.1 0 0 Z " fill="#030303" transform="translate(707,745)"/>
<path d="M0 0 C7.13649223 5.84752227 11.06277288 13.16350873 13.03515625 22.1171875 C13.73143876 35.50723572 13.82210763 48.72006264 5.3046875 59.85546875 C-2.11486369 67.24947932 -11.72051745 70.46256127 -21.96484375 71.1171875 C-22.70154297 71.1702002 -23.43824219 71.22321289 -24.19726562 71.27783203 C-37.96912787 72.15718032 -49.49649913 70.72216155 -61.08984375 62.5546875 C-68.37085519 55.48009649 -70.04032852 43.38560671 -70.20654297 33.69677734 C-70.247791 22.12063957 -69.29133761 12.85718669 -60.96484375 4.1171875 C-46.18801185 -9.3747025 -16.73093659 -10.62491626 0 0 Z " fill="#FBFBFB" transform="translate(273.96484375,769.8828125)"/>
<path d="M0 0 C8.25 0 16.5 0 25 0 C25 30.69 25 61.38 25 93 C49.09 93 73.18 93 98 93 C98 100.59 98 108.18 98 116 C65.66 116 33.32 116 0 116 C0 77.72 0 39.44 0 0 Z " fill="#070707" transform="translate(971,745)"/>
<path d="M0 0 C5.548125 -0.020625 11.09625 -0.04125 16.8125 -0.0625 C18.53960205 -0.071604 20.2667041 -0.08070801 22.04614258 -0.09008789 C46.69603751 -0.17146431 46.69603751 -0.17146431 54 7 C57.24043041 10.43437138 59.75540821 13.28785747 60.4375 18.0625 C59.84775806 23.37017746 57.5115281 27.01855938 54 31 C53.01 31.33 52.02 31.66 51 32 C51 32.66 51 33.32 51 34 C41.46324833 39.71753885 30.5583792 38.44377793 19.875 38.25 C17.94533102 38.22990603 16.01564185 38.21166039 14.0859375 38.1953125 C9.38971364 38.15496693 4.69632738 38.07663998 0 38 C0 25.46 0 12.92 0 0 Z " fill="#F9F9F9" transform="translate(482,765)"/>
<path d="M0 0 C0.66 0.33 1.32 0.66 2 1 C0.1875 4 0.1875 4 -2 7 C-2.99 7 -3.98 7 -5 7 C-6.76772229 8.70078187 -6.76772229 8.70078187 -8.4375 10.875 C-10.78569045 13.80629815 -12.57434525 15.46803018 -16 17 C-17.70921589 18.5412312 -17.70921589 18.5412312 -19 20 C-19.66 19.67 -20.32 19.34 -21 19 C-14.72942496 12.45073274 -8.0755217 6.66041736 -1 1 C-0.67 0.67 -0.34 0.34 0 0 Z " fill="#D4D4D4" transform="translate(469,199)"/>
<path d="M0 0 C3.10742423 1.46818668 5.90471739 3.20025 8.75 5.125 C9.94882812 5.93324219 9.94882812 5.93324219 11.171875 6.7578125 C11.77515625 7.16773438 12.3784375 7.57765625 13 8 C12.67 8.99 12.34 9.98 12 11 C11.01 10.67 10.02 10.34 9 10 C9 9.34 9 8.68 9 8 C7.6078125 7.5359375 7.6078125 7.5359375 6.1875 7.0625 C4.125 6.375 2.0625 5.6875 0 5 C0 3.35 0 1.7 0 0 Z " fill="#131313" transform="translate(762,160)"/>
<path d="M0 0 C0 3.57811631 -0.86465142 4.26675381 -3 7 C-3.33 7.99 -3.66 8.98 -4 10 C-4.99 10 -5.98 10 -7 10 C-8.70532323 11.94009522 -8.70532323 11.94009522 -10 14 C-10.99 13.67 -11.98 13.34 -13 13 C-9.13242719 8.04467233 -4.81123996 4.03523352 0 0 Z " fill="#DDDDDD" transform="translate(807,578)"/>
<path d="M0 0 C0.66 0.33 1.32 0.66 2 1 C1.505 1.886875 1.01 2.77375 0.5 3.6875 C-0.94378674 6.87586238 -1.30159922 8.58187546 -1 12 C-3.475 11.01 -3.475 11.01 -6 10 C-5.58578031 5.16743695 -3.53586014 3.17320782 0 0 Z " fill="#282828" transform="translate(496,435)"/>
<path d="M0 0 C0 3.94405202 -1.49401172 5.0517785 -4 8 C-4.99 9.485 -4.99 9.485 -6 11 C-7.6396721 12.36639342 -9.30327614 13.70513179 -11 15 C-11.66 14.67 -12.32 14.34 -13 14 C-11.02108364 11.85393535 -9.04187901 9.70813786 -7.0625 7.5625 C-6.49853516 6.95083984 -5.93457031 6.33917969 -5.35351562 5.70898438 C-4.81533203 5.12568359 -4.27714844 4.54238281 -3.72265625 3.94140625 C-3.22515869 3.40201416 -2.72766113 2.86262207 -2.21508789 2.30688477 C-1.48918929 1.52614632 -0.75381738 0.75381738 0 0 Z " fill="#D8D8D8" transform="translate(447,219)"/>
<path d="M0 0 C0.33 0.66 0.66 1.32 1 2 C0.525625 2.556875 0.05125 3.11375 -0.4375 3.6875 C-2.13524379 6.20016081 -2.45776094 8.05641654 -3 11 C-5.1385485 13.1385485 -6.13275314 13.42655063 -9 14 C-7.45158425 10.65291949 -5.50894136 7.75332488 -3.375 4.75 C-2.74335938 3.85796875 -2.11171875 2.9659375 -1.4609375 2.046875 C-0.73777344 1.03367187 -0.73777344 1.03367187 0 0 Z " fill="#2B2B2B" transform="translate(283,332)"/>
<path d="M0 0 C0.66 0.66 1.32 1.32 2 2 C1.34 2 0.68 2 0 2 C1 4.5 1 4.5 5 6 C1.04 6 -2.92 6 -7 6 C-7 5.34 -7 4.68 -7 4 C-4.69 2.68 -2.38 1.36 0 0 Z " fill="#BEBEBE" transform="translate(663,389)"/>
<path d="M0 0 C3.96 0 7.92 0 12 0 C11.67 1.32 11.34 2.64 11 4 C8.4375 5.25 8.4375 5.25 6 6 C5.67 4.68 5.34 3.36 5 2 C3.35 1.67 1.7 1.34 0 1 C0 0.67 0 0.34 0 0 Z " fill="#CCCCCC" transform="translate(562,379)"/>
<path d="M0 0 C-1.98 2.31 -3.96 4.62 -6 7 C-6.66 6.67 -7.32 6.34 -8 6 C-8 4.35 -8 2.7 -8 1 C-4.59449725 -1.06762667 -4.18836538 -1.04709135 0 0 Z " fill="#121212" transform="translate(449,217)"/>
<path d="M0 0 C0.66 0.33 1.32 0.66 2 1 C0.66666667 2.33333333 -0.66666667 3.66666667 -2 5 C-3.2684375 6.3303125 -3.2684375 6.3303125 -4.5625 7.6875 C-7 10 -7 10 -10 11 C-10.33 10.01 -10.66 9.02 -11 8 C-7.37 5.36 -3.74 2.72 0 0 Z " fill="#DADADA" transform="translate(688,371)"/>
<path d="M0 0 C3.59391114 1.33488128 6.75490696 2.96022723 10 5 C9.01 5.66 8.02 6.32 7 7 C4.4375 6.4375 4.4375 6.4375 2 5 C0.6875 2.375 0.6875 2.375 0 0 Z " fill="#E7E7E7" transform="translate(726,176)"/>
<path d="M0 0 C1 3 1 3 1 5 C0.01 5 -0.98 5 -2 5 C-2.2475 5.5775 -2.495 6.155 -2.75 6.75 C-4.16683317 9.3002997 -5.87627537 11.01785701 -8 13 C-8.66 12.67 -9.32 12.34 -10 12 C-6.7 8.04 -3.4 4.08 0 0 Z " fill="#2B2B2B" transform="translate(806,531)"/>
<path d="M0 0 C3.80635497 3.20760251 7.54563567 6.40746109 11 10 C8.69 9.34 6.38 8.68 4 8 C4 7.34 4 6.68 4 6 C2.68 5.34 1.36 4.68 0 4 C0 2.68 0 1.36 0 0 Z " fill="#E3E3E3" transform="translate(773,208)"/>
<path d="M0 0 C3.96 1.98 3.96 1.98 8 4 C8 4.66 8 5.32 8 6 C6.3125 6.75 6.3125 6.75 4 7 C1.25 5.0625 1.25 5.0625 -1 3 C-0.67 2.01 -0.34 1.02 0 0 Z " fill="#141414" transform="translate(735,144)"/>
<path d="M0 0 C0.66 0.33 1.32 0.66 2 1 C-0.81865285 5.22797927 -0.81865285 5.22797927 -3 7 C-5.85646479 7.53855713 -8.06501905 7.29847264 -11 7 C-9.60623819 4.21247638 -7.82491442 3.69568885 -5.0625 2.3125 C-4.16660156 1.85488281 -3.27070313 1.39726563 -2.34765625 0.92578125 C-1.57292969 0.62027344 -0.79820312 0.31476562 0 0 Z " fill="#3D3D3D" transform="translate(275,832)"/>
<path d="M0 0 C-1.66666667 1.66666667 -3.33333333 3.33333333 -5 5 C-6.32 5 -7.64 5 -9 5 C-9 4.34 -9 3.68 -9 3 C-9.66 2.67 -10.32 2.34 -11 2 C-9.54494642 1.47007308 -8.08581873 0.9513211 -6.625 0.4375 C-5.81289063 0.14746094 -5.00078125 -0.14257812 -4.1640625 -0.44140625 C-2 -1 -2 -1 0 0 Z " fill="#D1D1D1" transform="translate(710,642)"/>
<path d="M0 0 C3.11257569 0 5.10765685 0.17361624 8 1 C7.67 2.32 7.34 3.64 7 5 C4.03 4.01 1.06 3.02 -2 2 C-1.34 1.34 -0.68 0.68 0 0 Z " fill="#E2E2E2" transform="translate(221,834)"/>
<path d="M0 0 C0.66 0.99 1.32 1.98 2 3 C1.34 3 0.68 3 0 3 C-0.33 3.99 -0.66 4.98 -1 6 C-2.9375 6.5625 -2.9375 6.5625 -5 7 C-5.66 7.66 -6.32 8.32 -7 9 C-7.33 8.01 -7.66 7.02 -8 6 C-5.36 4.02 -2.72 2.04 0 0 Z " fill="#D7D7D7" transform="translate(779,602)"/>
<path d="M0 0 C0.99 0.66 1.98 1.32 3 2 C3 2.66 3 3.32 3 4 C2.38125 4.556875 1.7625 5.11375 1.125 5.6875 C-1.53990159 8.58753997 -2.12485711 11.20771415 -3 15 C-3.66 15 -4.32 15 -5 15 C-3.33333333 10 -1.66666667 5 0 0 Z " fill="#373737" transform="translate(367,282)"/>
<path d="M0 0 C2.60608273 2.5162178 4.89381685 5.05134359 7 8 C6.67 8.66 6.34 9.32 6 10 C5.34 10 4.68 10 4 10 C4 9.34 4 8.68 4 8 C3.34 8 2.68 8 2 8 C0.74335022 5.09399739 0 3.20395416 0 0 Z " fill="#232323" transform="translate(833,226)"/>
<path d="M0 0 C0.33 0.66 0.66 1.32 1 2 C1.66 2.33 2.32 2.66 3 3 C-0.51187196 5.40814077 -2.72656908 6.36629408 -7 6 C-4.74259377 3.66475218 -2.7194239 1.81294927 0 0 Z " fill="#1B1B1B" transform="translate(761,576)"/>
<path d="M0 0 C0.66 0.33 1.32 0.66 2 1 C2 1.66 2 2.32 2 3 C1.2575 3.28875 0.515 3.5775 -0.25 3.875 C-5.02286107 5.82175342 -5.02286107 5.82175342 -9 9 C-9.66 8.34 -10.32 7.68 -11 7 C-9.21475351 5.80286983 -7.4215972 4.61752721 -5.625 3.4375 C-4.62726563 2.77621094 -3.62953125 2.11492187 -2.6015625 1.43359375 C-1.74304688 0.96050781 -0.88453125 0.48742187 0 0 Z " fill="#C9C9C9" transform="translate(495,181)"/>
<path d="M0 0 C0.33 0.66 0.66 1.32 1 2 C0.22265625 3.9453125 0.22265625 3.9453125 -0.9375 6.125 C-1.31777344 6.84945313 -1.69804688 7.57390625 -2.08984375 8.3203125 C-2.39019531 8.87460937 -2.69054687 9.42890625 -3 10 C-3.99 9.67 -4.98 9.34 -6 9 C-6 8.01 -6 7.02 -6 6 C-5.34 6 -4.68 6 -4 6 C-3.71125 5.38125 -3.4225 4.7625 -3.125 4.125 C-2 2 -2 2 0 0 Z " fill="#141414" transform="translate(863,494)"/>
<path d="M0 0 C0.66 0.33 1.32 0.66 2 1 C1.67 2.32 1.34 3.64 1 5 C-1.3125 5.625 -1.3125 5.625 -4 6 C-4.99 5.34 -5.98 4.68 -7 4 C-1.7265625 0.77734375 -1.7265625 0.77734375 0 0 Z " fill="#282828" transform="translate(484,150)"/>
<path d="M0 0 C0.33 0 0.66 0 1 0 C1.31330487 5.22174778 0.88015136 8.57691041 -2 13 C-4.109375 14.16796875 -4.109375 14.16796875 -6 15 C-5.65066406 14.41992188 -5.30132812 13.83984375 -4.94140625 13.2421875 C-2.36970109 8.82730556 -0.40004495 5.20058437 0 0 Z " fill="#3E3E3E" transform="translate(285,814)"/>
<path d="M0 0 C0.66 0.99 1.32 1.98 2 3 C1.67 3.66 1.34 4.32 1 5 C0.34 5 -0.32 5 -1 5 C-1.33 5.66 -1.66 6.32 -2 7 C-4.0625 7.625 -4.0625 7.625 -6 8 C-2.25 2.25 -2.25 2.25 0 0 Z " fill="#DBDBDB" transform="translate(821,563)"/>
<path d="M0 0 C0.33 0 0.66 0 1 0 C1.1875 3.3125 1.1875 3.3125 1 7 C0.01 7.99 -0.98 8.98 -2 10 C-2.33 7.03 -2.66 4.06 -3 1 C-2.34 1.66 -1.68 2.32 -1 3 C-0.67 2.01 -0.34 1.02 0 0 Z " fill="#121212" transform="translate(852,333)"/>
<path d="M0 0 C1.65 0.33 3.3 0.66 5 1 C5 1.99 5 2.98 5 4 C0.71 4 -3.58 4 -8 4 C-8 3.67 -8 3.34 -8 3 C-5.36 2.67 -2.72 2.34 0 2 C0 1.34 0 0.68 0 0 Z " fill="#E7E7E7" transform="translate(829,401)"/>
<path d="M0 0 C-1.09445838 0.86657116 -2.20097781 1.71792724 -3.3125 2.5625 C-3.92738281 3.03816406 -4.54226563 3.51382812 -5.17578125 4.00390625 C-5.77777344 4.33261719 -6.37976563 4.66132813 -7 5 C-7.99 4.67 -8.98 4.34 -10 4 C-7.56830601 0.23087432 -7.56830601 0.23087432 -5 -0.8125 C-3 -1 -3 -1 0 0 Z " fill="#1E1E1E" transform="translate(667,387)"/>
<path d="M0 0 C4.875 4.75 4.875 4.75 6 7 C4.35 7 2.7 7 1 7 C0.67 4.69 0.34 2.38 0 0 Z " fill="#DBDBDB" transform="translate(408,560)"/>
<path d="M0 0 C0.66 0.99 1.32 1.98 2 3 C0.68 5.31 -0.64 7.62 -2 10 C-3.16909807 6.49270578 -2.85056945 4.55692677 -2 1 C-1.34 0.67 -0.68 0.34 0 0 Z " fill="#1A1A1A" transform="translate(847,522)"/>
<path d="M0 0 C1.32 0.99 2.64 1.98 4 3 C3.01 4.98 2.02 6.96 1 9 C-1 6 -1 6 -0.625 2.8125 C-0.41875 1.884375 -0.2125 0.95625 0 0 Z " fill="#151515" transform="translate(850,513)"/>
<path d="M0 0 C0.33 0.66 0.66 1.32 1 2 C-3.625 6.875 -3.625 6.875 -7 8 C-7.66 7.34 -8.32 6.68 -9 6 C-6.03 4.02 -3.06 2.04 0 0 Z " fill="#2B2B2B" transform="translate(571,383)"/>
<path d="M0 0 C2.64 0.66 5.28 1.32 8 2 C7.01 3.485 7.01 3.485 6 5 C2.875 5.1875 2.875 5.1875 0 5 C0 3.35 0 1.7 0 0 Z " fill="#E7E7E7" transform="translate(528,643)"/>
<path d="M0 0 C1.65 1.65 3.3 3.3 5 5 C4.67 5.66 4.34 6.32 4 7 C3.01 7 2.02 7 1 7 C-0.0625 4.625 -0.0625 4.625 -1 2 C-0.67 1.34 -0.34 0.68 0 0 Z " fill="#D3D3D3" transform="translate(811,251)"/>
<path d="M0 0 C1.32 0.99 2.64 1.98 4 3 C-0.75 6 -0.75 6 -3 6 C-3.33 5.01 -3.66 4.02 -4 3 C-3.01 2.67 -2.02 2.34 -1 2 C-0.67 1.34 -0.34 0.68 0 0 Z " fill="#171717" transform="translate(290,849)"/>
<path d="M0 0 C0 0.66 0 1.32 0 2 C1.32 2.33 2.64 2.66 4 3 C2.3125 4.1875 2.3125 4.1875 0 5 C-2.75 3.625 -2.75 3.625 -5 2 C-2 0 -2 0 0 0 Z " fill="#1E1E1E" transform="translate(493,624)"/>
<path d="M0 0 C4.875 4.625 4.875 4.625 6 8 C4.35 7.67 2.7 7.34 1 7 C0.67 4.69 0.34 2.38 0 0 Z " fill="#CACACA" transform="translate(402,552)"/>
<path d="M0 0 C2.45823172 3.68734758 3.01242616 6.69699971 4 11 C2 10 2 10 0 7 C-0.66 6.67 -1.32 6.34 -2 6 C-1.34 4.02 -0.68 2.04 0 0 Z " fill="#434343" transform="translate(388,458)"/>
<path d="M0 0 C0.99 0.33 1.98 0.66 3 1 C1.68 3.31 0.36 5.62 -1 8 C-1.93065133 5.39417629 -2.14917407 4.35801776 -1.0625 1.75 C-0.711875 1.1725 -0.36125 0.595 0 0 Z " fill="#141414" transform="translate(829,548)"/>
<path d="M0 0 C0.99 0.33 1.98 0.66 3 1 C1.58970126 3.82059747 -0.07891581 3.98101714 -3 5 C-4.32676508 5.35858516 -5.65835921 5.7018576 -7 6 C-4.74259377 3.66475218 -2.7194239 1.81294927 0 0 Z " fill="#2E2E2E" transform="translate(546,400)"/>
<path d="M0 0 C0.66 0.33 1.32 0.66 2 1 C1.01 3.31 0.02 5.62 -1 8 C-1.99 6.68 -2.98 5.36 -4 4 C-2.68 2.68 -1.36 1.36 0 0 Z " fill="#DADADA" transform="translate(704,360)"/>
<path d="M0 0 C0.6875 2.0625 0.6875 2.0625 1 4 C-4.75 2.25 -4.75 2.25 -7 0 C-3.98968256 -0.93423645 -3.13349732 -1.04449911 0 0 Z " fill="#353535" transform="translate(705,163)"/>
<path d="M0 0 C2.475 0.99 2.475 0.99 5 2 C5 3.65 5 5.3 5 7 C4.01 6.67 3.02 6.34 2 6 C0.8125 2.9375 0.8125 2.9375 0 0 Z " fill="#D3D3D3" transform="translate(208,823)"/>
<path d="M0 0 C0.66 0.99 1.32 1.98 2 3 C1.01 4.485 1.01 4.485 0 6 C-3 6 -3 6 -5 5 C-3.35 3.35 -1.7 1.7 0 0 Z " fill="#2C2C2C" transform="translate(787,553)"/>
<path d="M0 0 C0.66 0.99 1.32 1.98 2 3 C0.35 4.65 -1.3 6.3 -3 8 C-3 4.42424104 -1.91159393 2.94704065 0 0 Z " fill="#2E2E2E" transform="translate(822,506)"/>
<path d="M0 0 C0.66 0.66 1.32 1.32 2 2 C1.875 4 1.875 4 1 6 C-1.0625 7.25 -1.0625 7.25 -3 8 C-1.125 2.25 -1.125 2.25 0 0 Z " fill="#2A2A2A" transform="translate(826,498)"/>
<path d="M0 0 C0.99 0.66 1.98 1.32 3 2 C1.35 3.32 -0.3 4.64 -2 6 C-2.66 4.68 -3.32 3.36 -4 2 C-2.68 1.34 -1.36 0.68 0 0 Z " fill="#E8E8E8" transform="translate(492,435)"/>
<path d="M0 0 C0.66 0.33 1.32 0.66 2 1 C-1.17320782 4.53586014 -3.16743695 6.58578031 -8 7 C-5.4837822 4.39391727 -2.94865641 2.10618315 0 0 Z " fill="#C3C3C3" transform="translate(698,364)"/>
<path d="M0 0 C0.66 0.99 1.32 1.98 2 3 C-0.625 7.875 -0.625 7.875 -4 9 C-2.80100302 5.9168649 -1.52299523 2.93720508 0 0 Z " fill="#3E3E3E" transform="translate(381,253)"/>
<path d="M0 0 C-1.98 1.32 -3.96 2.64 -6 4 C-7.32 3.34 -8.64 2.68 -10 2 C-8.71211992 1.46987262 -7.41953322 0.9511671 -6.125 0.4375 C-5.40570313 0.14746094 -4.68640625 -0.14257812 -3.9453125 -0.44140625 C-2 -1 -2 -1 0 0 Z " fill="#B6B6B6" transform="translate(284,858)"/>
<path d="M0 0 C0.99 0.99 1.98 1.98 3 3 C0.525 4.485 0.525 4.485 -2 6 C-2 2 -2 2 0 0 Z " fill="#191919" transform="translate(215,768)"/>
<path d="M0 0 C0.66 0.33 1.32 0.66 2 1 C0.29374499 3.78388975 -0.47626739 4.85384206 -3.6875 5.75 C-4.8321875 5.87375 -4.8321875 5.87375 -6 6 C-4 4 -2 2 0 0 Z " fill="#303030" transform="translate(200,750)"/>
<path d="M0 0 C0.66 0.33 1.32 0.66 2 1 C0.875 2.9375 0.875 2.9375 -1 5 C-4.1875 5.75 -4.1875 5.75 -7 6 C-4.74259377 3.66475218 -2.7194239 1.81294927 0 0 Z " fill="#C7C7C7" transform="translate(769,609)"/>
<path d="M0 0 C1.98 0.495 1.98 0.495 4 1 C2.25 4.875 2.25 4.875 0 6 C-1.125 2.25 -1.125 2.25 0 0 Z " fill="#1D1D1D" transform="translate(784,593)"/>
<path d="M0 0 C1.32 0 2.64 0 4 0 C4 0.66 4 1.32 4 2 C4.99 2.33 5.98 2.66 7 3 C6.01 4.485 6.01 4.485 5 6 C3.35 4.02 1.7 2.04 0 0 Z " fill="#292929" transform="translate(424,577)"/>
<path d="M0 0 C0.99 0.33 1.98 0.66 3 1 C1.68 2.65 0.36 4.3 -1 6 C-1.99 5.67 -2.98 5.34 -4 5 C-2.68 3.35 -1.36 1.7 0 0 Z " fill="#DFDFDF" transform="translate(769,566)"/>
<path d="M0 0 C0.66 0.66 1.32 1.32 2 2 C1.34 3.32 0.68 4.64 0 6 C-0.99 5.67 -1.98 5.34 -3 5 C-1.125 1.125 -1.125 1.125 0 0 Z " fill="#D9D9D9" transform="translate(956,432)"/>
<path d="M0 0 C6.0546875 -0.1953125 6.0546875 -0.1953125 8 0 C8.66 0.66 9.32 1.32 10 2 C8.35 2.33 6.7 2.66 5 3 C5 2.34 5 1.68 5 1 C3.35 1 1.7 1 0 1 C0 0.67 0 0.34 0 0 Z " fill="#D8D8D8" transform="translate(320,364)"/>
<path d="M0 0 C1.32 1.32 2.64 2.64 4 4 C3 6 3 6 1 7 C-0.0625 4.625 -0.0625 4.625 -1 2 C-0.67 1.34 -0.34 0.68 0 0 Z " fill="#282828" transform="translate(840,236)"/>
<path d="M0 0 C1.65 1.65 3.3 3.3 5 5 C3.35 5.33 1.7 5.66 0 6 C0 4.02 0 2.04 0 0 Z " fill="#222222" transform="translate(824,215)"/>
</svg>
